<?xml version="1.0" encoding="UTF-8" standalone="no"?><!DOCTYPE svg PUBLIC "-//W3C//DTD SVG 1.1//EN" "http://www.w3.org/Graphics/SVG/1.1/DTD/svg11.dtd"><svg width="100%" height="100%" viewBox="0 0 240 240" version="1.1" xmlns="http://www.w3.org/2000/svg" xmlns:xlink="http://www.w3.org/1999/xlink" xml:space="preserve" xmlns:serif="http://www.serif.com/" style="fill-rule:evenodd;clip-rule:evenodd;stroke-linecap:round;stroke-miterlimit:1.5;"><g><g><path d="M129.182,8.59l-0,14.222l18.364,0l0,-14.222l18.364,0l0,34.135l-9.005,10.249l10.249,99.937l26.302,0l0,27.547l-9.182,0l0,50.951l-23.075,0l0,-19.666l-82.401,0l0,19.666l-23.075,0l0,-50.951l-9.182,0l0,-27.547l26.302,0l10.249,-99.937l-9.005,-10.249l0,-34.135l18.364,0l-0,14.222l18.364,0l0,-14.222l18.364,0Zm-8.987,46.072l-29.579,0l-9.712,98.638l11.954,10.03l27.337,0l0,-108.668Zm50.307,104.677l0,14.692l16.528,0l0,-14.692l-16.528,0Zm-117.532,0l0,14.692l16.528,0l0,-14.692l-16.528,0Zm94.577,11.937l-54.702,0l-17.447,17.447l89.597,0l-17.447,-17.447Zm-31.455,-157.412l-0,13.773l-28.912,-0l0,-9.865l0,-3.908l-7.817,-0l-0,28.178l44.546,0l0,-28.178l-7.817,-0Z"/></g><path d="M120.195,54.662l0,108.668l-27.337,0l-11.954,-10.03l9.712,-98.638l29.579,0Z" style="fill:#fff;"/><rect x="170.502" y="159.34" width="16.528" height="14.692" style="fill:#fff;"/><rect x="52.97" y="159.34" width="16.528" height="14.692" style="fill:#fff;"/><path d="M147.547,171.276l17.447,17.447l-89.597,0l17.447,-17.447l54.702,0Z" style="fill:#fff;"/><path d="M116.092,13.864l7.817,0l-0,28.178l-44.546,-0l0,-28.178l7.817,0l-0,3.908l-0,9.865l28.912,0l0,-13.773Z" style="fill:#fff;stroke:#000;stroke-width:1.26px;"/></g></svg>