<?xml version="1.0" encoding="UTF-8" standalone="no"?><!DOCTYPE svg PUBLIC "-//W3C//DTD SVG 1.1//EN" "http://www.w3.org/Graphics/SVG/1.1/DTD/svg11.dtd"><svg width="100%" height="100%" viewBox="0 0 240 240" version="1.1" xmlns="http://www.w3.org/2000/svg" xmlns:xlink="http://www.w3.org/1999/xlink" xml:space="preserve" xmlns:serif="http://www.serif.com/" style="fill-rule:evenodd;clip-rule:evenodd;stroke-linejoin:round;stroke-miterlimit:2;"><g><g><path d="M51.012,170.541l34.792,-17.4l-58.071,12.67l-13.251,-8.713l-5.098,-4.363l-4.937,-21.347l34.508,-48.14l30.142,-20.796l14.019,29.103l36.813,14.878l-24.022,21.094l43.736,31.211l-46.088,18.843l2.876,42.092l-39.58,-27.23l-5.84,-21.902Zm-4.56,-57.708l17.532,-2.96l4.856,-13.675l-14.689,2.354l-7.698,14.281Z"/><path d="M38.954,71.102l63.662,-45.042l-54.45,8.238l-9.211,36.804Z"/></g><path d="M193.228,153.22l-11.53,15.946l-62.628,-45.353l42.38,-35.745l-5.706,21.86l19.119,0.45l-9.137,-42.452l-36.055,29.854l-38.004,-16.367l-12.238,-25.254l51.1,-35.832l10.392,0.093l5.182,27.801l5.972,-27.701l21.64,0.194l5.127,27.508l5.909,-27.409l15.538,0.139l11.733,24.534l-20.152,14.013l24.358,-5.218l9.863,20.622l-20.771,14.444l25.107,-5.378l5.125,10.717l-17.463,24.15l-22.812,-10.204l17.051,18.172l-13.502,18.673l-22.166,-9.915l16.568,17.658Z"/></g></svg>