<?xml version="1.0" encoding="UTF-8" standalone="no"?><!DOCTYPE svg PUBLIC "-//W3C//DTD SVG 1.1//EN" "http://www.w3.org/Graphics/SVG/1.1/DTD/svg11.dtd"><svg width="100%" height="100%" viewBox="0 0 240 240" version="1.1" xmlns="http://www.w3.org/2000/svg" xmlns:xlink="http://www.w3.org/1999/xlink" xml:space="preserve" xmlns:serif="http://www.serif.com/" style="fill-rule:evenodd;clip-rule:evenodd;stroke-linejoin:round;stroke-miterlimit:2;"><g><path d="M112.636,229.158c0,0 -31.131,-17.534 -56.027,-45.471c-17.852,-20.033 -32.154,-45.289 -32.154,-72.973l0,-104.025l191.091,0l0,104.025c0,27.684 -14.302,52.94 -32.154,72.973c-24.896,27.938 -56.028,45.472 -56.027,45.471l-7.365,4.153l-7.364,-4.153Zm7.364,-30.691c9.506,-6.223 26.48,-18.433 41.003,-34.731c13.081,-14.679 24.555,-32.737 24.555,-53.022l0,-74.037l-131.116,0l0,74.037c0,20.286 11.473,38.343 24.555,53.022c14.523,16.298 31.498,28.508 41.004,34.731Z"/><path d="M120,62.517l42.165,42.165l-42.165,42.165l-42.165,-42.165l42.165,-42.165Z"/></g></svg>