<?xml version="1.0" encoding="UTF-8" standalone="no"?><!DOCTYPE svg PUBLIC "-//W3C//DTD SVG 1.1//EN" "http://www.w3.org/Graphics/SVG/1.1/DTD/svg11.dtd"><svg width="100%" height="100%" viewBox="0 0 240 240" version="1.1" xmlns="http://www.w3.org/2000/svg" xmlns:xlink="http://www.w3.org/1999/xlink" xml:space="preserve" xmlns:serif="http://www.serif.com/" style="fill-rule:evenodd;clip-rule:evenodd;stroke-linejoin:round;stroke-miterlimit:2;"><g><g><g><path d="M128.43,173.721l0,7.098l22.654,22.654l-31.085,31.085l-31.085,-31.085l22.786,-22.786l0,-6.783l-7.965,-7.965l0,-17.955l7.965,-7.965l0,-7.035l-7.965,-7.965l0,-17.955l7.965,-7.965l0,-5.821l-10.561,0l0,-42.358l38.512,-0l0,42.358l-11.221,0l0,6.005l7.781,7.781l0,17.955l-7.781,7.781l0,7.403l7.781,7.781l0,17.955l-7.781,7.781Zm-8.527,19.036l-8.337,8.337l8.425,7.324l8.337,-7.236l-8.425,-8.425Zm2.745,-82.461l-5.349,0l-0,11.491l5.349,-0l0,-11.491Zm-0,41.79l-5.349,0l-0,10.622l5.349,-0l0,-10.622Z"/><path d="M94.811,57.998l-54.398,-30.087l-19.152,91.271l45.915,61.904l-17.281,-56.775l17.36,-41.029l27.556,0l0,-25.283Z"/><path d="M145.429,57.998l54.398,-30.087l19.152,91.271l-45.915,61.904l17.281,-56.775l-17.36,-41.029l-27.556,0l0,-25.283Z"/></g></g><path d="M133.538,44.205l-25.319,0l12.66,-38.763l12.66,38.763Z"/></g></svg>