<?xml version="1.0" encoding="UTF-8" standalone="no"?><!DOCTYPE svg PUBLIC "-//W3C//DTD SVG 1.1//EN" "http://www.w3.org/Graphics/SVG/1.1/DTD/svg11.dtd"><svg width="100%" height="100%" viewBox="0 0 240 240" version="1.1" xmlns="http://www.w3.org/2000/svg" xmlns:xlink="http://www.w3.org/1999/xlink" xml:space="preserve" xmlns:serif="http://www.serif.com/" style="fill-rule:evenodd;clip-rule:evenodd;stroke-linejoin:round;stroke-miterlimit:2;"><g><g><path d="M186.366,198.211l0,-42.703l-7.805,0l-0,-37.061l48.224,13.803l0,23.258l-17.528,-0l14.877,74.021l-208.267,0l14.877,-74.021l-17.528,0l0,-23.258l48.224,-13.803l0,37.061l-7.805,0l-0,42.703l132.732,0Zm-121.406,-31.778l110.08,0l0,19.894l-110.08,0l-0,-19.894Zm54.872,-155.845l0,-0.117l0.168,0.059l0.168,-0.059l0,0.117l48.445,29.577l0,115.343l-97.226,0l-0,-115.343l48.445,-29.577Z"/></g></g></svg>